# Exported from Godot Engine
# Exported from Godot Engine
o ChairB
v 0.999968 0.499950 0.999962
vt 0.000000 1.000000
vn 1.000000 0.000015 0.000024
v 0.999968 0.499950 -1.000008
vt 1.000000 1.000000
vn 1.000000 0.000015 0.000024
v 0.999968 0.299974 0.999962
vt 0.000000 0.000000
vn 1.000000 0.000015 0.000024
v 0.999968 0.299974 -1.000008
vt 1.000000 0.000000
vn 1.000000 0.000015 0.000024
v -1.000002 0.499950 0.999962
vt 0.000000 1.000000
vn 0.000074 1.000000 0.000028
v -1.000002 0.499950 -1.000008
vt 1.000000 1.000000
vn 0.000074 1.000000 0.000028
v 0.999968 0.499950 0.999962
vt 0.000000 0.000000
vn 0.000074 1.000000 0.000028
v 0.999968 0.499950 -1.000008
vt 1.000000 0.000000
vn 0.000074 1.000000 0.000028
v -1.000002 0.299974 0.999962
vt 0.000000 1.000000
vn -1.000000 -0.000030 -0.000122
v -1.000002 0.299974 -1.000008
vt 1.000000 1.000000
vn -1.000000 -0.000030 -0.000122
v -1.000002 0.499950 0.999962
vt 0.000000 0.000000
vn -1.000000 -0.000030 -0.000122
v -1.000002 0.499950 -1.000008
vt 1.000000 0.000000
vn -1.000000 -0.000030 -0.000122
v 0.999968 0.299974 0.999962
vt 0.000000 1.000000
vn 0.000119 -1.000000 -0.000155
v 0.999968 0.299974 -1.000008
vt 1.000000 1.000000
vn 0.000119 -1.000000 -0.000155
v -1.000002 0.299974 0.999962
vt 0.000000 0.000000
vn 0.000119 -1.000000 -0.000155
v -1.000002 0.299974 -1.000008
vt 1.000000 0.000000
vn 0.000119 -1.000000 -0.000155
v 0.999968 0.499950 -1.000008
vt 0.000000 1.000000
vn 0.000000 -0.000031 -1.000000
v -1.000002 0.499950 -1.000008
vt 1.000000 1.000000
vn 0.000000 -0.000031 -1.000000
v 0.999968 0.299974 -1.000008
vt 0.000000 0.000000
vn 0.000000 -0.000031 -1.000000
v -1.000002 0.299974 -1.000008
vt 1.000000 0.000000
vn 0.000000 -0.000031 -1.000000
v -1.000002 0.499950 0.999962
vt 0.000000 1.000000
vn -0.000048 0.000000 1.000000
v 0.999968 0.499950 0.999962
vt 1.000000 1.000000
vn -0.000048 0.000000 1.000000
v -1.000002 0.299974 0.999962
vt 0.000000 0.000000
vn -0.000048 0.000000 1.000000
v 0.999968 0.299974 0.999962
vt 1.000000 0.000000
vn -0.000048 0.000000 1.000000
v 0.999968 0.299974 0.999962
vt 0.000000 1.000000
vn 1.000000 0.000015 0.000024
v 0.999968 0.299974 0.599962
vt 1.000000 1.000000
vn 1.000000 0.000015 0.000024
v 0.999968 -1.300000 0.999962
vt 0.000000 0.000000
vn 1.000000 0.000015 0.000024
v 0.999968 -1.300000 0.599962
vt 1.000000 0.000000
vn 1.000000 0.000015 0.000024
v 0.599998 0.299974 0.999962
vt 0.000000 1.000000
vn 0.000074 1.000000 0.000028
v 0.599968 0.299974 0.599962
vt 1.000000 1.000000
vn 0.000074 1.000000 0.000028
v 0.999968 0.299974 0.999962
vt 0.000000 0.000000
vn 0.000074 1.000000 0.000028
v 0.999968 0.299974 0.599962
vt 1.000000 0.000000
vn 0.000074 1.000000 0.000028
v 0.599998 -1.300000 0.999962
vt 0.000000 1.000000
vn -1.000000 -0.000030 -0.000122
v 0.599968 -1.300000 0.599962
vt 1.000000 1.000000
vn -1.000000 -0.000030 -0.000122
v 0.599998 0.299974 0.999962
vt 0.000000 0.000000
vn -1.000000 -0.000030 -0.000122
v 0.599968 0.299974 0.599962
vt 1.000000 0.000000
vn -1.000000 -0.000030 -0.000122
v 0.999968 -1.300000 0.999962
vt 0.000000 1.000000
vn 0.000119 -1.000000 -0.000155
v 0.999968 -1.300000 0.599962
vt 1.000000 1.000000
vn 0.000119 -1.000000 -0.000064
v 0.599998 -1.300000 0.999962
vt 0.000000 0.000000
vn 0.000119 -1.000000 -0.000064
v 0.599968 -1.300000 0.599962
vt 1.000000 0.000000
vn 0.000119 -1.000000 -0.000064
v 0.999968 0.299974 0.599962
vt 0.000000 1.000000
vn 0.000000 -0.000031 -1.000000
v 0.599968 0.299974 0.599962
vt 1.000000 1.000000
vn 0.000000 -0.000031 -1.000000
v 0.999968 -1.300000 0.599962
vt 0.000000 0.000000
vn 0.000000 -0.000031 -1.000000
v 0.599968 -1.300000 0.599962
vt 1.000000 0.000000
vn 0.000000 -0.000031 -1.000000
v 0.599998 0.299974 0.999962
vt 0.000000 1.000000
vn -0.000048 0.000000 1.000000
v 0.999968 0.299974 0.999962
vt 1.000000 1.000000
vn -0.000048 0.000000 1.000000
v 0.599998 -1.300000 0.999962
vt 0.000000 0.000000
vn -0.000048 0.000000 1.000000
v 0.999968 -1.300000 0.999962
vt 1.000000 0.000000
vn -0.000048 0.000000 1.000000
v 0.999998 0.299974 -0.600008
vt 0.000000 1.000000
vn 1.000000 0.000015 0.000024
v 0.999998 0.299974 -1.000008
vt 1.000000 1.000000
vn 1.000000 0.000015 0.000024
v 0.999998 -1.300000 -0.600008
vt 0.000000 0.000000
vn 1.000000 0.000015 0.000024
v 0.999998 -1.300000 -1.000008
vt 1.000000 0.000000
vn 1.000000 0.000015 0.000024
v 0.599968 0.299974 -0.600008
vt 0.000000 1.000000
vn 0.000074 1.000000 0.000028
v 0.599968 0.299974 -1.000008
vt 1.000000 1.000000
vn 0.000074 1.000000 0.000028
v 0.999998 0.299974 -0.600008
vt 0.000000 0.000000
vn 0.000074 1.000000 0.000028
v 0.999998 0.299974 -1.000008
vt 1.000000 0.000000
vn 0.000074 1.000000 0.000028
v 0.599968 -1.300000 -0.600008
vt 0.000000 1.000000
vn -1.000000 -0.000030 -0.000122
v 0.599968 -1.300000 -1.000008
vt 1.000000 1.000000
vn -1.000000 -0.000030 -0.000122
v 0.599968 0.299974 -0.600008
vt 0.000000 0.000000
vn -1.000000 -0.000030 -0.000122
v 0.599968 0.299974 -1.000008
vt 1.000000 0.000000
vn -1.000000 -0.000030 -0.000122
v 0.999998 -1.300000 -0.600008
vt 0.000000 1.000000
vn 0.000119 -1.000000 -0.000064
v 0.999998 -1.300000 -1.000008
vt 1.000000 1.000000
vn 0.000119 -1.000000 -0.000064
v 0.599968 -1.300000 -0.600008
vt 0.000000 0.000000
vn 0.000119 -1.000000 -0.000064
v 0.599968 -1.300000 -1.000008
vt 1.000000 0.000000
vn 0.000119 -1.000000 -0.000064
v 0.999998 0.299974 -1.000008
vt 0.000000 1.000000
vn 0.000000 -0.000031 -1.000000
v 0.599968 0.299974 -1.000008
vt 1.000000 1.000000
vn 0.000000 -0.000031 -1.000000
v 0.999998 -1.300000 -1.000008
vt 0.000000 0.000000
vn 0.000000 -0.000031 -1.000000
v 0.599968 -1.300000 -1.000008
vt 1.000000 0.000000
vn 0.000000 -0.000031 -1.000000
v 0.599968 0.299974 -0.600008
vt 0.000000 1.000000
vn -0.000048 0.000000 1.000000
v 0.999998 0.299974 -0.600008
vt 1.000000 1.000000
vn -0.000048 0.000000 1.000000
v 0.599968 -1.300000 -0.600008
vt 0.000000 0.000000
vn -0.000048 0.000000 1.000000
v 0.999998 -1.300000 -0.600008
vt 1.000000 0.000000
vn -0.000048 0.000000 1.000000
v -0.600002 0.299974 -0.600008
vt 0.000000 1.000000
vn 1.000000 0.000015 0.000024
v -0.600032 0.299974 -1.000008
vt 1.000000 1.000000
vn 1.000000 0.000015 0.000024
v -0.600002 -1.300000 -0.600008
vt 0.000000 0.000000
vn 1.000000 0.000015 0.000024
v -0.600032 -1.300000 -1.000008
vt 1.000000 0.000000
vn 1.000000 0.000015 0.000024
v -1.000002 0.299974 -0.600008
vt 0.000000 1.000000
vn 0.000074 1.000000 0.000028
v -1.000002 0.299974 -1.000008
vt 1.000000 1.000000
vn 0.000074 1.000000 0.000028
v -0.600002 0.299974 -0.600008
vt 0.000000 0.000000
vn 0.000074 1.000000 0.000028
v -0.600032 0.299974 -1.000008
vt 1.000000 0.000000
vn 0.000074 1.000000 0.000028
v -1.000002 -1.300000 -0.600008
vt 0.000000 1.000000
vn -1.000000 -0.000030 -0.000122
v -1.000002 -1.300000 -1.000008
vt 1.000000 1.000000
vn -1.000000 -0.000030 -0.000122
v -1.000002 0.299974 -0.600008
vt 0.000000 0.000000
vn -1.000000 -0.000030 -0.000122
v -1.000002 0.299974 -1.000008
vt 1.000000 0.000000
vn -1.000000 -0.000030 -0.000122
v -0.600002 -1.300000 -0.600008
vt 0.000000 1.000000
vn 0.000119 -1.000000 -0.000064
v -0.600032 -1.300000 -1.000008
vt 1.000000 1.000000
vn 0.000119 -1.000000 -0.000064
v -1.000002 -1.300000 -0.600008
vt 0.000000 0.000000
vn 0.000119 -1.000000 -0.000064
v -1.000002 -1.300000 -1.000008
vt 1.000000 0.000000
vn 0.000119 -1.000000 -0.000155
v -0.600032 0.299974 -1.000008
vt 0.000000 1.000000
vn 0.000000 -0.000031 -1.000000
v -1.000002 0.299974 -1.000008
vt 1.000000 1.000000
vn 0.000000 -0.000031 -1.000000
v -0.600032 -1.300000 -1.000008
vt 0.000000 0.000000
vn 0.000000 -0.000031 -1.000000
v -1.000002 -1.300000 -1.000008
vt 1.000000 0.000000
vn 0.000000 -0.000031 -1.000000
v -1.000002 0.299974 -0.600008
vt 0.000000 1.000000
vn -0.000048 0.000000 1.000000
v -0.600002 0.299974 -0.600008
vt 1.000000 1.000000
vn -0.000048 0.000000 1.000000
v -1.000002 -1.300000 -0.600008
vt 0.000000 0.000000
vn -0.000048 0.000000 1.000000
v -0.600002 -1.300000 -0.600008
vt 1.000000 0.000000
vn -0.000048 0.000000 1.000000
v -0.600002 0.299974 0.999962
vt 0.000000 1.000000
vn 1.000000 0.000015 0.000024
v -0.600032 0.299974 0.599962
vt 1.000000 1.000000
vn 1.000000 0.000015 0.000024
v -0.600002 -1.300000 0.999962
vt 0.000000 0.000000
vn 1.000000 0.000015 0.000024
v -0.600032 -1.300000 0.599962
vt 1.000000 0.000000
vn 1.000000 0.000015 0.000024
v -1.000002 0.299974 0.999962
vt 0.000000 1.000000
vn 0.000074 1.000000 0.000028
v -1.000002 0.299974 0.599962
vt 1.000000 1.000000
vn 0.000074 1.000000 0.000028
v -0.600002 0.299974 0.999962
vt 0.000000 0.000000
vn 0.000074 1.000000 0.000028
v -0.600032 0.299974 0.599962
vt 1.000000 0.000000
vn 0.000074 1.000000 0.000028
v -1.000002 -1.300000 0.999962
vt 0.000000 1.000000
vn -1.000000 -0.000030 -0.000122
v -1.000002 -1.300000 0.599962
vt 1.000000 1.000000
vn -1.000000 -0.000030 -0.000122
v -1.000002 0.299974 0.999962
vt 0.000000 0.000000
vn -1.000000 -0.000030 -0.000122
v -1.000002 0.299974 0.599962
vt 1.000000 0.000000
vn -1.000000 -0.000030 -0.000122
v -0.600002 -1.300000 0.999962
vt 0.000000 1.000000
vn 0.000119 -1.000000 -0.000064
v -0.600032 -1.300000 0.599962
vt 1.000000 1.000000
vn 0.000119 -1.000000 -0.000064
v -1.000002 -1.300000 0.999962
vt 0.000000 0.000000
vn 0.000119 -1.000000 -0.000064
v -1.000002 -1.300000 0.599962
vt 1.000000 0.000000
vn 0.000119 -1.000000 -0.000155
v -0.600032 0.299974 0.599962
vt 0.000000 1.000000
vn 0.000000 -0.000031 -1.000000
v -1.000002 0.299974 0.599962
vt 1.000000 1.000000
vn 0.000000 -0.000031 -1.000000
v -0.600032 -1.300000 0.599962
vt 0.000000 0.000000
vn 0.000000 -0.000031 -1.000000
v -1.000002 -1.300000 0.599962
vt 1.000000 0.000000
vn 0.000000 -0.000031 -1.000000
v -1.000002 0.299974 0.999962
vt 0.000000 1.000000
vn -0.000048 0.000000 1.000000
v -0.600002 0.299974 0.999962
vt 1.000000 1.000000
vn -0.000048 0.000000 1.000000
v -1.000002 -1.300000 0.999962
vt 0.000000 0.000000
vn -0.000048 0.000000 1.000000
v -0.600002 -1.300000 0.999962
vt 1.000000 0.000000
vn -0.000048 0.000000 1.000000
v -0.800017 0.399962 0.999993
vt 0.000000 1.000000
vn 0.000028 -1.000000 0.000028
v -0.800017 0.399962 -1.000008
vt 1.000000 1.000000
vn 0.000028 -1.000000 -0.000064
v -1.000002 0.399962 0.999993
vt 0.000000 0.000000
vn 0.000028 -1.000000 0.000028
v -1.000002 0.399962 -1.000008
vt 1.000000 0.000000
vn 0.000028 -1.000000 -0.000064
v -0.800017 2.400001 0.999993
vt 0.000000 1.000000
vn 1.000000 0.000015 0.000024
v -0.800017 2.400001 -1.000008
vt 1.000000 1.000000
vn 1.000000 0.000015 0.000024
v -0.800017 0.399962 0.999993
vt 0.000000 0.000000
vn 1.000000 0.000015 0.000024
v -0.800017 0.399962 -1.000008
vt 1.000000 0.000000
vn 1.000000 0.000015 0.000024
v -1.000002 2.400001 0.999993
vt 0.000000 1.000000
vn 0.000074 1.000000 0.000028
v -1.000002 2.400001 -1.000008
vt 1.000000 1.000000
vn 0.000074 1.000000 0.000028
v -0.800017 2.400001 0.999993
vt 0.000000 0.000000
vn 0.000074 1.000000 0.000028
v -0.800017 2.400001 -1.000008
vt 1.000000 0.000000
vn 0.000074 1.000000 0.000028
v -1.000002 0.399962 0.999993
vt 0.000000 1.000000
vn -1.000000 -0.000030 -0.000122
v -1.000002 0.399962 -1.000008
vt 1.000000 1.000000
vn -1.000000 -0.000030 -0.000122
v -1.000002 2.400001 0.999993
vt 0.000000 0.000000
vn -1.000000 -0.000030 -0.000122
v -1.000002 2.400001 -1.000008
vt 1.000000 0.000000
vn -1.000000 -0.000030 -0.000122
v -0.800017 0.399962 -1.000008
vt 0.000000 1.000000
vn 0.000031 0.000030 -1.000000
v -0.800017 2.400001 -1.000008
vt 1.000000 1.000000
vn 0.000031 0.000030 -1.000000
v -1.000002 0.399962 -1.000008
vt 0.000000 0.000000
vn 0.000031 0.000030 -1.000000
v -1.000002 2.400001 -1.000008
vt 1.000000 0.000000
vn 0.000031 0.000030 -1.000000
v -0.800017 2.400001 0.999993
vt 0.000000 1.000000
vn 0.000000 -0.000031 1.000000
v -0.800017 0.399962 0.999993
vt 1.000000 1.000000
vn 0.000000 -0.000031 1.000000
v -1.000002 2.400001 0.999993
vt 0.000000 0.000000
vn 0.000000 -0.000031 1.000000
v -1.000002 0.399962 0.999993
vt 1.000000 0.000000
vn 0.000000 -0.000031 1.000000
f 3/3/3 2/2/2 1/1/1
f 3/3/3 4/4/4 2/2/2
f 7/7/7 6/6/6 5/5/5
f 7/7/7 8/8/8 6/6/6
f 11/11/11 10/10/10 9/9/9
f 11/11/11 12/12/12 10/10/10
f 15/15/15 14/14/14 13/13/13
f 15/15/15 16/16/16 14/14/14
f 19/19/19 18/18/18 17/17/17
f 19/19/19 20/20/20 18/18/18
f 23/23/23 22/22/22 21/21/21
f 23/23/23 24/24/24 22/22/22
f 27/27/27 26/26/26 25/25/25
f 27/27/27 28/28/28 26/26/26
f 31/31/31 30/30/30 29/29/29
f 31/31/31 32/32/32 30/30/30
f 35/35/35 34/34/34 33/33/33
f 35/35/35 36/36/36 34/34/34
f 39/39/39 38/38/38 37/37/37
f 39/39/39 40/40/40 38/38/38
f 43/43/43 42/42/42 41/41/41
f 43/43/43 44/44/44 42/42/42
f 47/47/47 46/46/46 45/45/45
f 47/47/47 48/48/48 46/46/46
f 51/51/51 50/50/50 49/49/49
f 51/51/51 52/52/52 50/50/50
f 55/55/55 54/54/54 53/53/53
f 55/55/55 56/56/56 54/54/54
f 59/59/59 58/58/58 57/57/57
f 59/59/59 60/60/60 58/58/58
f 63/63/63 62/62/62 61/61/61
f 63/63/63 64/64/64 62/62/62
f 67/67/67 66/66/66 65/65/65
f 67/67/67 68/68/68 66/66/66
f 71/71/71 70/70/70 69/69/69
f 71/71/71 72/72/72 70/70/70
f 75/75/75 74/74/74 73/73/73
f 75/75/75 76/76/76 74/74/74
f 79/79/79 78/78/78 77/77/77
f 79/79/79 80/80/80 78/78/78
f 83/83/83 82/82/82 81/81/81
f 83/83/83 84/84/84 82/82/82
f 87/87/87 86/86/86 85/85/85
f 87/87/87 88/88/88 86/86/86
f 91/91/91 90/90/90 89/89/89
f 91/91/91 92/92/92 90/90/90
f 95/95/95 94/94/94 93/93/93
f 95/95/95 96/96/96 94/94/94
f 99/99/99 98/98/98 97/97/97
f 99/99/99 100/100/100 98/98/98
f 103/103/103 102/102/102 101/101/101
f 103/103/103 104/104/104 102/102/102
f 107/107/107 106/106/106 105/105/105
f 107/107/107 108/108/108 106/106/106
f 111/111/111 110/110/110 109/109/109
f 111/111/111 112/112/112 110/110/110
f 115/115/115 114/114/114 113/113/113
f 115/115/115 116/116/116 114/114/114
f 119/119/119 118/118/118 117/117/117
f 119/119/119 120/120/120 118/118/118
f 123/123/123 122/122/122 121/121/121
f 123/123/123 124/124/124 122/122/122
f 127/127/127 126/126/126 125/125/125
f 127/127/127 128/128/128 126/126/126
f 131/131/131 130/130/130 129/129/129
f 131/131/131 132/132/132 130/130/130
f 135/135/135 134/134/134 133/133/133
f 135/135/135 136/136/136 134/134/134
f 139/139/139 138/138/138 137/137/137
f 139/139/139 140/140/140 138/138/138
f 143/143/143 142/142/142 141/141/141
f 143/143/143 144/144/144 142/142/142
